<svg xmlns:dc="http://purl.org/dc/elements/1.1/" xmlns:cc="http://creativecommons.org/ns#"
     xmlns:rdf="http://www.w3.org/1999/02/22-rdf-syntax-ns#" xmlns:svg="http://www.w3.org/2000/svg"
     xmlns="http://www.w3.org/2000/svg" xmlns:sodipodi="http://sodipodi.sourceforge.net/DTD/sodipodi-0.dtd"
     xmlns:inkscape="http://www.inkscape.org/namespaces/inkscape" version="1.1" id="svg2" xml:space="preserve"
     sodipodi:docname="iStock-869455944.eps" viewBox="149.51 453.54 1290.2 916.45"><metadata id="metadata8"><rdf:RDF><cc:Work rdf:about=""><dc:format>image/svg+xml</dc:format><dc:type
    rdf:resource="http://purl.org/dc/dcmitype/StillImage"></dc:type></cc:Work></rdf:RDF></metadata>
    <defs id="defs6"></defs>
    <sodipodi:namedview pagecolor="#ffffff" bordercolor="#666666" borderopacity="1" objecttolerance="10"
                        gridtolerance="10" guidetolerance="10" inkscape:pageopacity="0" inkscape:pageshadow="2"
                        inkscape:window-width="640" inkscape:window-height="480" id="namedview4"></sodipodi:namedview>
    <g id="g10" inkscape:groupmode="layer" inkscape:label="ink_ext_XXXXXX"
       transform="matrix(1.3333333,0,0,-1.3333333,0,1600)"><g id="g12" transform="scale(0.1)"><path d="M 3260.55,2893.87 2920,2860 l 5870.82,583.91 -660.84,530.47 c 0,0 577.83,1279.4 105.36,1480.93 -410.48,175.1 -756.66,-340.92 -756.66,-340.92 0,0 621.91,1193.24 0,1397.79 -621.88,204.54 -860.54,-1363.68 -860.54,-1363.68 0,0 225.2,1142.07 -143.08,1176.17 -368.3,34.09 -785.59,-869.36 -785.59,-869.36 0,0 491,1731.99 0.32,1729.15 -490.68,-2.85 -656.92,-1405.27 -656.92,-1405.27 0,0 -172.62,903.44 -546.56,877.89 -373.92,-25.59 95.96,-1497.98 95.96,-1497.98 0,0 -333.51,1029.19 -964.22,816.11 -630.7,-213.06 102.28,-1218.76 102.28,-1218.76 0,0 -715.94,187.5 -937.53,-68.19 C 2561.2,4432.56 3070,3920 3070,3920 c 0,0 190.55,-804.55 190.55,-1026.13" style="fill:#5fa09e;fill-opacity:1;fill-rule:nonzero;stroke:none" id="path16"></path><path
        d="M 6699.58,7783.77 C 6640.22,8116.47 6410,8451.84 5860,8491.23 v 1.98 c 0,0.18 -5.79,0.43 -10.48,0.56 -18.57,0.52 -34.99,0.5 -52.96,0.25 -17.97,0.25 -35.97,0.27 -54.51,-0.25 -4.73,-0.13 -12.05,-0.38 -12.05,-0.56 v -1.89 c -610,-41.95 -817.6,-327.79 -865.28,-702.71 -53.64,-421.79 -55.95,-2630.37 -53.17,-2811.95 144.95,-176.48 1805.72,-173.34 2011.79,-33.34 3.46,227.83 -42.76,2386.34 -123.76,2840.45"
        style="fill:#ddd322;fill-opacity:1;fill-rule:nonzero;stroke:none" id="path18"></path><path
        d="m 5815.52,6298.32 v 0.04 c -0.64,0 -1.28,-0.02 -1.92,-0.02 -0.64,0 -1.28,0.02 -1.92,0.02 v -0.04 C 5260.83,6296.7 4686.69,5966.37 4535,5845 l 328.33,-518.34 183.34,43.34 3.33,-2240 h 761.68 3.84 761.68 l 3.33,2240 183.34,-43.34 328.33,518.34 c -151.69,121.37 -725.83,451.7 -1276.68,453.32"
        style="fill:var(--svg-sneak-background, #ffffff);fill-opacity:1;fill-rule:nonzero;stroke:none" id="path20"></path><path
        d="m 6096.12,6271.66 -109.87,21.46 -25.41,258.29 -280.31,10.19 -10.53,-265.98 c 0,0 -89.22,-12.11 -135.15,-23.29 -1.15,-13.99 0.47,-29.58 1.04,-44 6.87,-172.35 137.8,-305.83 292.43,-298.16 154.63,7.68 274.41,153.62 267.55,325.96 -0.11,2.83 0.43,12.72 0.25,15.53"
        style="fill:#f4ac89;fill-opacity:1;fill-rule:nonzero;stroke:none" id="path22"></path><path
        d="m 5674.1,6398.43 c 0,0 195.64,-49.8 300.77,6.72 l -8.2,89.85 H 5677.9 l -3.8,-96.57"
        style="fill:#e0987c;fill-opacity:1;fill-rule:nonzero;stroke:none" id="path24"></path><path
        d="m 6633.95,7260.24 c 7.4,-449.57 -351.04,-820.01 -800.61,-827.41 v 0 c -449.57,-7.4 -820.02,351.06 -827.4,800.63 l -4.99,303.58 c -7.41,449.56 351.04,820 800.59,827.41 v 0 c 449.59,7.39 820.04,-351.05 827.42,-800.63 l 4.99,-303.58"
        style="fill:#f4ac89;fill-opacity:1;fill-rule:nonzero;stroke:none" id="path26"></path><path
        d="m 5197.09,7250.48 c 1.99,-120.89 -94.18,-220.52 -214.8,-222.5 -120.63,-1.98 -220.04,94.4 -222.04,215.32 -1.98,120.92 94.18,220.52 214.84,222.52 120.61,1.97 220.02,-94.43 222,-215.34"
        style="fill:#f4ac89;fill-opacity:1;fill-rule:nonzero;stroke:none" id="path28"></path><path
        d="m 5342.32,7793.44 c 0,0 -164.37,-640.43 -219.06,-1337.62 l -126.15,19.96 c 0,0 -59.51,873.77 23.73,1317.66 h 321.48"
        style="fill:#ddd322;fill-opacity:1;fill-rule:nonzero;stroke:none" id="path30"></path><path
        d="m 4180.84,7904.33 c -0.15,-63.01 41.54,-114.18 93.11,-114.29 l 771.19,-1.77 c 51.56,-0.12 93.49,50.87 93.63,113.87 v 0 c 0.14,63.01 -41.54,114.18 -93.11,114.31 l -771.19,1.73 c -51.58,0.14 -93.49,-50.85 -93.63,-113.85 v 0"
        style="fill:#d84c96;fill-opacity:1;fill-rule:nonzero;stroke:none" id="path32"></path><path
        d="m 6700.55,7784.85 c 1.01,448.12 -363.63,812.1 -811.74,813.11 l -215.07,0.51 c -448.11,1.02 -806.84,-361.74 -807.86,-809.86 l 1834.67,-3.76"
        style="fill:#ee509c;fill-opacity:1;fill-rule:nonzero;stroke:none" id="path34"></path><path
        d="m 5734.8,7914.26 481.61,1.96 v 0 c 2.53,121.23 -90.63,219.14 -208.05,218.65 l -56.38,-0.22 c -117.42,-0.48 -214.65,-99.16 -217.18,-220.39 v 0"
        style="fill:#f4ac89;fill-opacity:1;fill-rule:nonzero;stroke:none" id="path36"></path><path
        d="m 6041.43,6857.12 c 0,-131.21 -93.44,-237.56 -208.73,-237.56 -115.3,0 -208.74,106.35 -208.74,237.56 0,131.21 93.44,237.58 208.74,237.58 115.29,0 208.73,-106.37 208.73,-237.58"
        style="fill:#bc3166;fill-opacity:1;fill-rule:nonzero;stroke:none" id="path38"></path><path
        d="m 5832.7,6619.56 c 83.33,0 155.23,55.6 188.7,135.96 -32.15,67.81 -100.74,107.9 -188.7,140.73 -67.19,25.04 -147,51.86 -197.73,37 -7.12,-23.91 -11.01,-49.5 -11.01,-76.13 0,-131.21 93.44,-237.56 208.74,-237.56"
        style="fill:#d64d7b;fill-opacity:1;fill-rule:nonzero;stroke:none" id="path40"></path><path
        d="m 4621.14,5484.4 c -378.36,0 -620.8,76.97 -740.64,234.94 -52.12,68.71 -70.29,152.7 -52.56,242.91 38.15,194.06 246.17,424.52 654.64,725.27 174.59,128.54 343.99,238.29 448.95,303.97 -59.35,213.9 -5.84,378.14 56.27,484.18 78.09,133.32 185.74,201.43 197.76,208.76 l 156.18,-256.14 1.46,0.91 c -0.61,-0.4 -61.32,-40.01 -101.47,-113.9 -50.18,-92.34 -47.1,-201.93 9.15,-325.74 l 55.72,-122.65 -115.98,-68.54 c -2.9,-1.71 -292.74,-173.54 -572.97,-384.28 -462.25,-347.63 -494.05,-496.04 -496.12,-515.98 23.76,-28.83 118.58,-106.35 451.53,-113.21 l 188.26,-297.19 c -34.92,-1.6 -70.94,-2.7 -107.55,-3.12 -10.98,-0.12 -21.87,-0.19 -32.63,-0.19"
        style="fill:#e0987c;fill-opacity:1;fill-rule:nonzero;stroke:none" id="path42"></path><path
        d="m 7002.07,5484.4 c 378.36,0 620.8,76.97 740.64,234.94 52.12,68.71 70.3,152.7 52.56,242.91 -38.15,194.06 -246.17,424.52 -654.64,725.27 -174.59,128.54 -343.99,238.29 -448.95,303.97 59.36,213.9 5.84,378.14 -56.27,484.18 -78.09,133.32 -185.74,201.43 -197.75,208.76 l -156.2,-256.14 -1.45,0.91 c 0.62,-0.4 61.32,-40.01 101.47,-113.9 50.18,-92.34 47.1,-201.93 -9.15,-325.74 l -55.71,-122.65 115.98,-68.54 c 2.89,-1.71 292.73,-173.54 572.97,-384.28 462.24,-347.63 494.04,-496.04 496.11,-515.98 -23.76,-28.83 -114.55,-106.26 -447.5,-113.13 l -188.41,-297.44 c 34.92,-1.6 67.06,-2.53 103.67,-2.95 10.98,-0.12 21.87,-0.19 32.63,-0.19"
        style="fill:#e0987c;fill-opacity:1;fill-rule:nonzero;stroke:none" id="path44"></path><path
        d="m 5607.77,7262.76 c 0,-143.68 -116.09,-260.16 -259.31,-260.16 -143.23,0 -259.32,116.48 -259.32,260.16 0,143.69 116.09,260.16 259.32,260.16 143.22,0 259.31,-116.47 259.31,-260.16"
        style="fill:#5454b5;fill-opacity:1;fill-rule:nonzero;stroke:none" id="path46"></path><path
        d="m 6550.14,7262.76 c 0,-143.68 -116.11,-260.16 -259.32,-260.16 -143.22,0 -259.32,116.48 -259.32,260.16 0,143.69 116.1,260.16 259.32,260.16 143.21,0 259.32,-116.47 259.32,-260.16"
        style="fill:#5454b5;fill-opacity:1;fill-rule:nonzero;stroke:none" id="path48"></path><path
        d="m 6294.35,7042.66 c -122,0 -221.24,99.24 -221.24,221.23 0,121.99 99.24,221.24 221.24,221.24 121.99,0 221.24,-99.25 221.24,-221.24 0,-121.99 -99.25,-221.23 -221.24,-221.23 z m -943.3,0 c -121.99,0 -221.24,99.24 -221.24,221.23 0,121.99 99.25,221.24 221.24,221.24 122,0 221.24,-99.25 221.24,-221.24 0,-121.99 -99.24,-221.23 -221.24,-221.23 z m 943.3,544.17 c -92.59,0 -176.15,-39.23 -235.09,-101.87 l -239.85,34 -234.06,-33.18 c -58.89,62.15 -142.12,101.05 -234.3,101.05 -178.06,0 -322.92,-144.88 -322.92,-322.94 0,-178.06 144.86,-322.93 322.92,-322.93 120.57,0 225.86,66.47 281.31,164.65 145.02,60.25 125.41,189.47 125.41,189.47 l 61.64,17.26 61.66,-17.26 c 0,0 -20.48,-134.33 133.95,-192.94 55.98,-96.27 160.18,-161.18 279.33,-161.18 178.05,0 322.92,144.87 322.92,322.93 0,178.06 -144.87,322.94 -322.92,322.94"
        style="fill:#000000;fill-opacity:1;fill-rule:nonzero;stroke:none" id="path50"></path><path
        d="m 6422.38,7378.13 c -19.41,38.55 -55.17,63.44 -94.63,70.51 l -27.48,-70.54 c 41.02,-6.06 78.56,-31.28 98.64,-71.12 10.23,-20.36 14.72,-42.11 14.04,-63.38 26.64,38.43 31.94,89.85 9.43,134.53"
        style="fill:#ffffff;fill-opacity:1;fill-rule:nonzero;stroke:none" id="path52"></path><path
        d="m 5471.56,7378.13 c -19.41,38.55 -55.17,63.44 -94.64,70.51 l -27.47,-70.54 c 41.01,-6.06 78.55,-31.28 98.63,-71.12 10.24,-20.36 14.72,-42.11 14.05,-63.38 26.63,38.43 31.93,89.85 9.43,134.53"
        style="fill:#ffffff;fill-opacity:1;fill-rule:nonzero;stroke:none" id="path54"></path><path
        d="m 3179.4,1725.1 h 7471.5 c 0,0 370.2,881.68 -64.9,1110.69 -410.1,215.83 -905.51,-331.68 -905.51,-331.68 0,0 832.71,1558.02 302.37,1640.01 -530.39,82 -909.99,-410 -909.99,-410 0,0 757.15,1465.04 0,1681.02 C 8530,5570 8037.95,3775.12 8037.95,3775.12 c 0,0 375.99,1330.19 -66.92,1371.21 -442.93,41 -1049.94,-1002.21 -1049.94,-1002.21 0,0 590.5,2082.96 0.38,2079.54 -590.1,-3.43 -790.03,-1690.04 -790.03,-1690.04 0,0 -207.6,1086.52 -657.32,1055.78 -449.69,-30.77 151.24,-1615.03 151.24,-1615.03 0,0 -436.92,1051.25 -1195.44,795 -758.51,-256.25 123.01,-1465.75 123.01,-1465.75 0,0 -861.03,225.5 -1127.52,-82 -266.5,-307.51 492.01,-758.5 492.01,-758.5 0,0 -738.02,-471.52 -738.02,-738.02"
        style="fill:#6db5b5;fill-opacity:1;fill-rule:nonzero;stroke:none" id="path56"></path><path
        d="m 1142.5,1725.1 h 7176.33 c 0,0 -1970.92,245.7 -1946.54,377.22 31.71,171.27 51.67,305.59 -129.77,313.62 -320.77,14.21 -595.74,-151.1 -595.74,-151.1 0,0 576.95,1079.48 209.5,1136.29 -367.5,56.8 -630.48,-284.07 -630.48,-284.07 0,0 518.19,994.24 0,1164.7 -518.2,170.43 -717.05,-1136.29 -717.05,-1136.29 0,0 187.65,951.62 -119.24,980.04 -306.87,28.41 -654.59,-724.38 -654.59,-724.38 0,0 409.14,1443.17 0.28,1440.78 C 3326.34,4839.55 3187.82,3671 3187.82,3671 c 0,0 -143.84,752.79 -455.41,731.48 -311.58,-21.31 104.77,-1118.96 104.77,-1118.96 0,0 -302.72,728.35 -828.25,550.82 -525.54,-177.54 85.21,-1015.56 85.21,-1015.56 0,0 -596.55,156.23 -781.2,-56.82 -184.64,-213.05 340.89,-525.51 340.89,-525.51 0,0 -657.478,-128.63 -511.33,-511.35"
        style="fill:#538782;fill-opacity:1;fill-rule:nonzero;stroke:none" id="path58"></path></g></g></svg>
