<svg xmlns="http://www.w3.org/2000/svg" viewBox="0 0 788.13 900.67"><defs><style>.cls-1{fill:#fff;}.cls-2{fill:#99c6e4;}.cls-2,.cls-8{stroke:#0071bc;}.cls-10,.cls-11,.cls-12,.cls-2,.cls-7,.cls-8,.cls-9{stroke-linecap:round;stroke-miterlimit:10;}.cls-3{fill:#1d1d1b;}.cls-4{fill:#0071bc;}.cls-5{fill:#2e3192;}.cls-6{fill:#4d4d4d;}.cls-10,.cls-11,.cls-12,.cls-7,.cls-8,.cls-9{fill:none;}.cls-7{stroke:#4d4d4d;}.cls-9{stroke:#2e3192;}.cls-10,.cls-12{stroke:#1d1d1b;}.cls-11{stroke:#000;}.cls-11,.cls-12{stroke-width:40px;}</style></defs><title>Element 5</title><g id="Ebene_2" data-name="Ebene 2"><g id="Ebene_1-2" data-name="Ebene 1"><path class="cls-1" d="M564.19,150.1c-13.52-10.91-26.9-22-39.59-33.89l-2.84-2.67c-2.67-2.39-5.32-4.81-8-7.2a68,68,0,0,0-6.7-4.94C501.17,97.61,495,94.28,488.84,91c-11.94-6.45-24.59-12.85-34-22.83-1.1-1.16-2.15-2.34-3.18-3.53a87.58,87.58,0,0,1-21.13-24.78c-2.19-3.82-4.19-7.84-6.06-12a52.87,52.87,0,0,0-9.9,3.14,178.05,178.05,0,0,0-23.47,11.67A351.3,351.3,0,0,0,346.61,73c-16.68,13.55-32.68,28.11-51,39.56-7.38,4.62-14.59,9-21.41,14.49-7,5.61-13.77,11.58-20.73,17.28-12.2,10-25.7,19.92-41.49,22.62,0,.9-.06,1.8-.1,2.7.36,15.81,1.5,31.6,1.45,47.42-.08,23.81-1.09,45.33-4.19,68.86-1.43,10.86-4.14,21.32-6.52,32-4.39,19.73-6.82,39.83-9.67,59.83v171a26.44,26.44,0,0,1,1.73,3.76l4.54,9.79a85.23,85.23,0,0,1,9.78-6.63q11.27,2.39,15.46,13.86l.43.92a14.22,14.22,0,0,1,3.69,1.5,36.57,36.57,0,0,1,8.08-1.39Q248,573,252.17,584.49l8.08,17.4c2.66,6.22,5,12.61,7,19.11h.68l2.57-.17c17.08-1.07,34.19-.64,51.28.17H523c.65-2.61,1.35-5.2,2.11-7.79a385.26,385.26,0,0,1,58.65-120.32q4.19-7.18,9.93-4.65c7-16.29,14.95-32.15,23.33-47.77v-248Q590.47,171.44,564.19,150.1Z"/><path class="cls-2" d="M713.34,497.14c-1.24-7.83-4.82-15.21-5.27-23.2,0-.65,0-1.3,0-1.95-.29-.6-.58-1.2-.86-1.81-12.62-27.24-17.82-57-22.06-86.57-2.7-10.42-4.48-21.22-7.55-31.25-2.88-9.4-5.84-19-6.87-28.76a46.2,46.2,0,0,1-.23-5.57c-.24-.23-.49-.44-.72-.68-3-3.1-2.84-6.19-1.7-10.26.13-.48.29-1,.44-1.43q-1.25-4-2.52-8.1c-6.21-19.85-12.48-40-13.39-60.93-.31-7.17,2-13.85,4.39-20.51-16.23-13.63-31.89-27.9-47.3-42.44-.94-.77-1.89-1.52-2.83-2.28.54,4,.89,8.1,1.1,12.18,8.15,9.74,7.2,26.4,7.3,38.23a176.35,176.35,0,0,1-2.3,30.83,71.25,71.25,0,0,1,1.92,7.37,151.37,151.37,0,0,1,2.89,22.13,155.62,155.62,0,0,1,0,23.41,61.72,61.72,0,0,1-2.16,11.55c.51,2.13,1,4.27,1.31,6.44a12.69,12.69,0,0,1-.61,5.57,111.34,111.34,0,0,1-.16,21.06c-.05.51-.11,1-.17,1.53.39,3.37.59,6.71.76,9.82s.15,6.15,0,9.22c.17,1.67.27,3.34.29,5a83.65,83.65,0,0,1,2.79,18.16c.13,1.91,1.38,15.24-3.56,13-4.66-2.11-6.81-6.33-8.58-10.86a76.08,76.08,0,0,1-3.59-12.41c-.37-.74-.72-1.53-1-2.34a26.66,26.66,0,0,1-5.49-8.59c-.54-1.2-1-2.42-1.47-3.64-1.29.81-2.27.78-2.55-.79a69.7,69.7,0,0,0-2.27-9.24,46.43,46.43,0,0,1-2.3-5.07,1.87,1.87,0,0,1-2-1.11,78.69,78.69,0,0,1-5.28-11.24c-1-1.09-2-2.15-3.06-3.22-1.1.89-2,1.34-2.6,1a199.29,199.29,0,0,1-12.18,16.43l-.18.21a88,88,0,0,1-7.31,14.34c-1,1.58-2,3.21-3.15,4.8l-.38.84c-2.49,5.28-5.23,10.45-8.12,15.52-.56,2.65-1.26,5.24-1.85,7.65-.93,3.76-2,7.48-3.1,11.21,0,.23-.1.45-.15.68,0,1.73,0,3.46,0,5.2a77.44,77.44,0,0,0,4.59,25.48c2.43,6.39,6,12.3,8.25,18.76,2.7,7.78,2.47,15.8.48,23.72a92.12,92.12,0,0,1-15.41,32,188.92,188.92,0,0,1-12,27.56c-4.27,8.32-9,16.52-13.84,24.59a81.83,81.83,0,0,1-10.8,21.39,81.14,81.14,0,0,1-4.95,10.72,68,68,0,0,1-7.56,11.66q-1.84,3-3.84,6v3.34A145.12,145.12,0,0,1,512.37,630a153.41,153.41,0,0,1,25,4c30.67,7.6,61.07,16.5,90.88,27,2-5.08,4.42-10,6.8-14.8a190.83,190.83,0,0,1,13.29-22.69,156.5,156.5,0,0,1,11.76-21.3q6.41-9.75,12.92-19.44c5.32-14.24,13.38-27.32,21.85-39.91,1-1.54,2.09-3.06,3.14-4.59a93.28,93.28,0,0,1,9.75-19c1.52-3,3.09-6,4.76-9l-.07-.61A37.16,37.16,0,0,1,713.34,497.14Z"/><path class="cls-2" d="M289.26,618.4c-2.81-3.45-3-8.68-4.77-12.65-2.8-6.36-6.16-12.75-9.49-18.86s-6.56-12.16-8.12-19c-1-4.58-1.82-9.29-3.36-13.74-5.23-2.72-6.72-11.05-7.92-16.13-2.17-9.18-8.3-16.5-11.46-25.33-5-14-.66-27.08,6.05-39.85,2.71-5.16,7-13.33,12.62-17.79l.23-.6a95.07,95.07,0,0,1,4.2-9.22l.1-.35c.37-1.35.71-2.71,1.07-4.06,1-3.95,2.2-7.86,3.63-11.7-2.37-2.91-2.3-6.44-1-10.72a23.8,23.8,0,0,1,0-2.52c0-2.45-.34-4.88-.27-7.34a23.4,23.4,0,0,1,.7-4.79c-3.87-8.94-8.32-17.6-13-26.14-2.14-1.74-4.24-3.54-6.38-5.3-1.75-.59-3.52-1-4.75-1.35a1.37,1.37,0,0,1-.92-.94c-.92,2.22-1.7,3.94-1.93,4.38-2.08,4.15-5.22,11-9.32,15.41-.91,1.75-1.8,3.36-2.53,4.71a84.65,84.65,0,0,1-5,8.2c-2.18,4.27-4.53,8.45-7,12.61a123.6,123.6,0,0,1-8.61,13.25q-.56,1.36-1.17,2.71A70.28,70.28,0,0,1,200,449c-.58.66-5.93,6.79-6.66,2.69-1.28-7.21,1.8-15,5.17-21.75q.27-1.79.51-3.59c.78-5.76,1.67-11.58,2.08-17.37.34-4.69.36-9.41.85-14.09,0-.05,0-.1,0-.16-.43-7.68,1.81-15.74,4.47-22.87a61.54,61.54,0,0,1,.9-10.17c.19-1,.41-2,.66-2.93.54-10.32,2.25-20.63,3.92-30.76,1.38-8.35,2.81-16.8,3-25.27q.14-3.36-.08-.16-.09-1.76-.12-3.53c-.06-2.85,0-5.72,0-8.56.07-4.35.3-8.69.75-13a230.47,230.47,0,0,1,4.79-27.67,24.74,24.74,0,0,1,1.15-11.37,41.28,41.28,0,0,1,0-4.36,52.57,52.57,0,0,1,2.81-14.61,37.77,37.77,0,0,1,.81-8.93c.5-9.27.82-18.54,2.05-27.78a96.47,96.47,0,0,1,7.58-27.41c1-2.14,2-4.3,3.15-6.44-5,3.14-10.16,6.12-15.49,8.9l-3.59.21c-8.73,8.83-17.54,17.59-26.26,26.38-15.52,15.64-34.28,28.47-53.06,40.06,1.5,1.57,1.24,5.64,1.13,7.42-.4,6.43-3.37,13.69-6.19,20.07a81.86,81.86,0,0,1-4,14.39q-1.14,3.36-2.54,6.65l-.56,1.79c-.5,3-1.23,5.95-1.95,8.68a94.27,94.27,0,0,1-2.91,9.07c-.19.66-.38,1.31-.56,2-.85,3.07-1.63,6.16-2.41,9.25-.15.6-.33,1.21-.49,1.81A94.16,94.16,0,0,1,112.63,323c-5,19.41-9.94,38.85-17.35,57.31a265.16,265.16,0,0,1-9.76,31.05c.35,13.7-5.57,27.23-11.57,39.38-1.49,5.23-3.27,10.36-5.07,15.54,4.24-12.18,1.08-3,.17,0-.81,2.64-1.61,5.28-2.43,7.92-2,6.46-4.14,12.92-6.53,19.27A160.35,160.35,0,0,1,54.79,516,308.66,308.66,0,0,1,43.21,547.4a56.29,56.29,0,0,1-1.39,5.85c0,.77-.06,1.54-.11,2.3-.08,1.3-.18,2.6-.3,3.89a3.29,3.29,0,0,1,1,2.64,30.58,30.58,0,0,0,.74,5.76,1.05,1.05,0,0,1,.25.2,15.89,15.89,0,0,1,3.76,6.7,5.45,5.45,0,0,1,.14.76,64.33,64.33,0,0,1,4.14,6.1l.95,1.32c.78-.15,1.42.19,1.79,1.23s.71,1.85,1.1,2.76a122.64,122.64,0,0,1,10.47,16.15c5.84,7,12.59,13.36,18.41,19.92,2.55,2.88,5.14,5.72,7.61,8.67a146.52,146.52,0,0,1,14.9,16.76,58.31,58.31,0,0,1,7,11.7c.25.5.48,1,.71,1.54.43-.31.87-.6,1.31-.87,9.45-5.63,20.39-9.08,31.13-11.4a1.52,1.52,0,0,1,1.88.69c3.75-1.32,7.52-2.59,11.28-3.93,29.84-10.65,61-17.31,92.45-21.58,12.59-1.71,25-3.08,37.47-5.48A9,9,0,0,1,289.26,618.4Z"/><path d="M778,723C694.6,668.41,599.44,632.29,501.3,615.61c-99-16.83-201-14.65-299,7.46a716.85,716.85,0,0,0-159,56.23c-5.26,2.59-6.71,10.06-3.9,14.87,3.14,5.37,9.59,6.5,14.87,3.9,86.92-42.84,183-66.4,279.68-71a750,750,0,0,1,287.22,42.26A690.43,690.43,0,0,1,767,741.72c4.91,3.21,12,1,14.87-3.9,3.1-5.29,1-11.65-3.9-14.87Z"/><path d="M142.31,216.73q-17.06,56-34.13,111.9Q91.35,383.79,74.51,438.95L56.28,498.64,47,529.09c-3,9.78-7.58,20.13-8,30.45-.43,10.55,5.74,19,11.5,27.28,5.94,8.48,12.4,16.59,19,24.59,14.07,17.12,29,33.64,41.66,51.89,3.16,4.57,10.7.23,7.51-4.39-10.6-15.32-22.82-29.46-34.77-43.72-6.44-7.68-12.87-15.38-19-23.34-5.32-7-11.4-14.32-15.12-22.28-4.82-10.32.4-21.17,3.48-31.23l9-29.54,18-59Q109.72,353.4,139.12,257L150.69,219c1.64-5.36-6.75-7.66-8.38-2.31Z"/><path d="M254.13,379.72c10.68,11,15.27,26.15,14.94,41.31-.34,15.79-6,29.48-14.94,42.29-8.59,12.36-17.6,25.36-14.54,41.17,1.72,8.88,5.78,17.12,9.23,25.42q5.51,13.23,11.28,26.34c9.53,21.59,19.48,43,28.3,64.89,1,2.56,5.24,1.44,4.19-1.16-7.63-18.92-16.06-37.49-24.38-56.12-4.41-9.88-8.79-19.77-13-29.74-3.66-8.73-7.92-17.44-10.46-26.58-5.29-19,7.24-32.71,16.9-47.62a74.8,74.8,0,0,0,11.76-40.29c0-15.84-5.1-31.49-16.23-43-1.95-2-5,1.06-3.07,3.07Z"/><path d="M247.89,376.48a16.42,16.42,0,0,1,1.7-3.6l-3,.78a46.92,46.92,0,0,1,5.18,3.88c2.11,1.82,5.19-1.24,3.07-3.07a55.13,55.13,0,0,0-6.06-4.56,2.2,2.2,0,0,0-3,.78,21.25,21.25,0,0,0-2.14,4.64c-.85,2.67,3.35,3.82,4.19,1.16Z"/><path d="M245.48,379.18c.46-1,.94-2,1.46-2.91.32-.58.75-1.13,1-1.72.66-1.29.22.24-.17-.42.38.65,2.07,1.42,2.7,2,.89.77,1.76,1.58,2.58,2.42,2,2,5-1.06,3.07-3.07s-5.26-5.74-8.35-5.68-5,4.81-6.1,7.22,2.58,4.73,3.75,2.19Z"/><path d="M246.43,378.16l3.16-5.28-4-.52a2.81,2.81,0,0,1-.6,2.28c-1.37,2.44,2.38,4.64,3.75,2.19,1-1.72,1.71-3.66,1-5.63a2.2,2.2,0,0,0-4-.52L242.68,376c-1.44,2.4,2.31,4.59,3.75,2.19Z"/><path d="M203.26,629.95c-9.9-15.54-19.11-31.51-28.86-47.15-4.42-7.08-9.23-14-12.74-21.61-1.92-4.15-4-9.07-3.53-13.74s3.1-9.12,5-13.31a915.26,915.26,0,0,1,50.1-96.61c11.08-18.74,22.5-37.27,33.72-55.92,2.89-4.81-4.62-9.18-7.51-4.39-20.34,33.81-41.27,67.26-59.57,102.25q-13.16,25.16-24.63,51.16c-3.58,8.13-7.1,15.37-5,24.45,2,8.52,6.74,16.38,11.35,23.71,11.56,18.41,22.48,37.22,34.16,55.55,3,4.71,10.52.35,7.51-4.39Z"/><path class="cls-3" d="M576.43,335.29c-23.37,28.45-50,64.61-37.62,103.69,2.87,9.06,9.1,16.87,11.27,26.13,2.52,10.76-3.4,21.79-7.52,31.39Q530,525.75,515.82,554.26,499.54,587,481.19,618.74c-2.8,4.85,4.71,9.24,7.51,4.39A1157.23,1157.23,0,0,0,546.28,509.6c4.11-9.36,8.94-18.87,11.59-28.77,2.44-9.09,1.48-17.55-2.33-26.09-3.92-8.77-8.76-16.6-10.3-26.26-1.57-9.86-.43-20.1,2.29-29.65,6.21-21.89,20.86-40.11,35-57.4,3.52-4.29-2.59-10.48-6.15-6.15Z"/><path class="cls-3" d="M575.78,339.67a454.31,454.31,0,0,0,22.1,45.8q6.28,11.28,13.21,22.18c4,6.22,10.08,12.87,11.92,20.13,2,7.84-3,17.78-5.44,25.44q-3.43,10.92-6.79,21.86c-12.35,40-24.52,80.06-36.8,120.08-4.5,14.67-8.93,29.37-13.66,44-1.73,5.33,6.66,7.62,8.38,2.31,10.64-32.83,20.4-66,30.5-99q9.24-30.22,18.53-60.43,3.62-11.73,7.27-23.44c2.1-6.72,4.73-13.49,6.28-20.35,1.95-8.62-.15-15.78-4.84-23.07-5.25-8.14-10.62-16.17-15.54-24.52a436.27,436.27,0,0,1-26.72-53.32c-2.13-5.09-10.54-2.85-8.38,2.31Z"/><path class="cls-3" d="M646.44,218.61q14.25,89.25,35.36,177.2,10.46,43.48,22.59,86.52c1.9,6.8,4,13.78,3.58,20.92-.45,7.79-4.62,14.58-8.43,21.16q-11.67,20.18-23.36,40.35L624.48,654c-2.81,4.85,4.7,9.23,7.51,4.39L679.71,576l23.86-41.21c6.75-11.66,14.19-23.06,13-37.12-1.3-14.81-7.13-29.6-11-43.91q-6.06-22.53-11.67-45.17-11-44.34-20.2-89.09-10.59-51.39-18.85-103.22c-.88-5.51-9.26-3.17-8.38,2.31Z"/><path d="M224.14,167.22q-12.89,113.72-26.94,227.3-4,32.59-8.05,65.16c-.69,5.54,8,5.49,8.69,0Q212,346.11,225.34,232.45q3.8-32.61,7.5-65.23c.63-5.55-8.07-5.51-8.69,0Z"/><path class="cls-4" d="M620.5,414.29l-6.26-224.86h0c.06,72.49,6.26,224.86,6.26,224.86Z"/><path class="cls-3" d="M624.85,414.29l-2.12-76.1L619.36,217l-.77-27.62a4.33,4.33,0,0,0-2.15-3.75h0c-2.89-1.43-6.55.28-6.54,3.75.08,68.5,2.89,137,5.5,205.49q.37,9.69.76,19.37c.23,5.58,8.92,5.6,8.69,0-2.28-56.11-4.22-112.24-5.47-168.37-.42-18.83-.77-37.66-.79-56.49L612,193.18h0l-2.15-3.75,2.12,76.1,3.37,121.15.77,27.62C616.31,419.87,625,419.89,624.85,414.29Z"/><path class="cls-5" d="M304.72,798c-2.56,1.26-7.68,2.53-14.24,2.53-15.2,0-26.64-9.47-26.64-26.92,0-16.66,11.44-27.95,28.16-27.95,6.72,0,11,1.42,12.8,2.37l-1.68,5.61a25.65,25.65,0,0,0-10.88-2.21c-12.64,0-21,8-21,21.95,0,13,7.6,21.4,20.72,21.4a28.17,28.17,0,0,0,11.36-2.21Z"/><path class="cls-5" d="M347.36,780.27c0,14.13-9.92,20.29-19.28,20.29-10.48,0-18.56-7.58-18.56-19.66,0-12.79,8.48-20.29,19.2-20.29C339.84,760.61,347.36,768.58,347.36,780.27Zm-30.72.4c0,8.37,4.88,14.68,11.76,14.68,6.72,0,11.76-6.24,11.76-14.84,0-6.47-3.28-14.68-11.6-14.68S316.64,773.4,316.64,780.66Z"/><path class="cls-5" d="M356.24,771.82c0-3.95-.08-7.18-.32-10.34h6.24l.4,6.32h.16a14.27,14.27,0,0,1,12.8-7.18c5.36,0,13.68,3.16,13.68,16.26v22.82h-7v-22c0-6.16-2.32-11.29-9-11.29a10,10,0,0,0-9.44,7.11,9.87,9.87,0,0,0-.48,3.24v23h-7Z"/><path class="cls-5" d="M401.36,799.69V766.77h-5.44v-5.29h5.44v-2.05c0-10.11,6-16.66,16.88-16.66,3.6,0,7.84,1.1,9.84,2.53l-2,5.29a15,15,0,0,0-8.16-2.21c-7.44,0-9.6,5.13-9.6,11.21v1.9H430.8v38.21h-7V766.77H408.32v32.92Z"/><path class="cls-5" d="M442.48,771.82c0-3.95-.08-7.18-.32-10.34h6.24l.4,6.32H449a14.27,14.27,0,0,1,12.8-7.18c5.36,0,13.68,3.16,13.68,16.26v22.82h-7v-22c0-6.16-2.32-11.29-9-11.29a10,10,0,0,0-9.44,7.11,9.87,9.87,0,0,0-.48,3.24v23h-7Z"/><path class="cls-4" d="M86.43,883.68a23.6,23.6,0,0,1-10,2c-10.51,0-17.35-7-17.35-17.55s7.34-18.26,18.72-18.26a21.42,21.42,0,0,1,8.78,1.78l-1.44,4.83a14.85,14.85,0,0,0-7.34-1.63c-8,0-12.31,5.83-12.31,13,0,8,5.18,12.86,12.1,12.86A18.21,18.21,0,0,0,85.35,879Z"/><path class="cls-4" d="M124.95,867.48c0,12.72-8.93,18.26-17.35,18.26-9.43,0-16.71-6.82-16.71-17.69,0-11.51,7.63-18.26,17.28-18.26C118.18,849.79,124.95,857,124.95,867.48Zm-27.65.35c0,7.53,4.39,13.22,10.58,13.22s10.58-5.61,10.58-13.36c0-5.83-3-13.22-10.44-13.22S97.3,861.3,97.3,867.84Z"/><path class="cls-4" d="M132.94,859.88c0-3.55-.07-6.47-.29-9.31h5.62l.36,5.69h.14a12.84,12.84,0,0,1,11.52-6.47c4.82,0,12.31,2.84,12.31,14.64V885h-6.34V865.14c0-5.54-2.09-10.16-8.06-10.16a9,9,0,0,0-8.5,6.4,8.88,8.88,0,0,0-.43,2.91V885h-6.34Z"/><path class="cls-4" d="M180.24,840.69v9.88h9.07v4.76h-9.07v18.55c0,4.26,1.22,6.68,4.75,6.68a14.28,14.28,0,0,0,3.67-.43l.29,4.69a15.68,15.68,0,0,1-5.62.85A8.84,8.84,0,0,1,176.5,883c-1.8-1.85-2.45-4.9-2.45-9V855.33h-5.4v-4.76H174v-8.24Z"/><path class="cls-4" d="M196.44,861.3c0-4.05-.07-7.53-.29-10.73h5.54l.22,6.75h.29c1.58-4.62,5.4-7.53,9.65-7.53a7,7,0,0,1,1.8.21v5.9a9.61,9.61,0,0,0-2.16-.21c-4.46,0-7.63,3.34-8.5,8a17.37,17.37,0,0,0-.29,2.91V885h-6.26Z"/><path class="cls-4" d="M250.8,867.48c0,12.72-8.93,18.26-17.35,18.26-9.43,0-16.71-6.82-16.71-17.69,0-11.51,7.63-18.26,17.28-18.26C244,849.79,250.8,857,250.8,867.48Zm-27.65.35c0,7.53,4.39,13.22,10.58,13.22s10.58-5.61,10.58-13.36c0-5.83-3-13.22-10.44-13.22S223.15,861.3,223.15,867.84Z"/><path class="cls-4" d="M258.79,834.51h6.34V885h-6.34Z"/><path class="cls-4" d="M293.35,850.57,301,870.89c.79,2.27,1.66,5,2.23,7h.14c.65-2.06,1.37-4.69,2.23-7.18l6.91-20.18h6.7l-9.5,24.52c-4.54,11.8-7.63,17.84-12,21.53a17.25,17.25,0,0,1-7.78,4l-1.58-5.26a16.85,16.85,0,0,0,5.54-3.06,19,19,0,0,0,5.33-7,4.45,4.45,0,0,0,.5-1.49,5.39,5.39,0,0,0-.43-1.63l-12.89-31.69Z"/><path class="cls-4" d="M355.78,867.48c0,12.72-8.93,18.26-17.35,18.26-9.43,0-16.71-6.82-16.71-17.69,0-11.51,7.63-18.26,17.28-18.26C349,849.79,355.78,857,355.78,867.48Zm-27.65.35c0,7.53,4.39,13.22,10.58,13.22s10.58-5.61,10.58-13.36c0-5.83-3-13.22-10.44-13.22S328.13,861.3,328.13,867.84Z"/><path class="cls-4" d="M392.93,875.58c0,3.55.07,6.68.29,9.38H387.6l-.36-5.61h-.14a13.14,13.14,0,0,1-11.52,6.39c-5.47,0-12-3-12-15.06V850.57h6.34v19c0,6.54,2,10.94,7.78,10.94a9.15,9.15,0,0,0,8.35-5.69,9,9,0,0,0,.58-3.2V850.57h6.34Z"/><path class="cls-4" d="M403.44,861.3c0-4.05-.07-7.53-.29-10.73h5.54l.22,6.75h.29c1.58-4.62,5.4-7.53,9.65-7.53a7,7,0,0,1,1.8.21v5.9a9.61,9.61,0,0,0-2.16-.21c-4.46,0-7.63,3.34-8.5,8a17.37,17.37,0,0,0-.29,2.91V885h-6.26Z"/><path class="cls-4" d="M442.89,885V855.33H438v-4.76h4.9v-1.85c0-9.1,5.4-15,15.19-15,3.24,0,7.06,1,8.86,2.27l-1.8,4.76a13.45,13.45,0,0,0-7.34-2c-6.7,0-8.64,4.62-8.64,10.09v1.71h20.23V885h-6.26V855.33h-14V885Z"/><path class="cls-4" d="M479.9,859.88c0-3.55-.07-6.47-.29-9.31h5.62l.36,5.69h.14a12.84,12.84,0,0,1,11.52-6.47c4.82,0,12.31,2.84,12.31,14.64V885h-6.34V865.14c0-5.54-2.09-10.16-8.07-10.16a9,9,0,0,0-8.5,6.4,8.88,8.88,0,0,0-.43,2.91V885H479.9Z"/><path class="cls-4" d="M539.16,885l-.5-4.33h-.22a13,13,0,0,1-10.66,5.12c-7.06,0-10.66-4.9-10.66-9.88,0-8.31,7.49-12.86,21-12.79v-.71c0-2.84-.79-8-7.92-8a17.54,17.54,0,0,0-9.07,2.56l-1.44-4.12a21.85,21.85,0,0,1,11.45-3.06c10.66,0,13.25,7.18,13.25,14.07v12.86a47.84,47.84,0,0,0,.58,8.24Zm-.94-17.55c-6.91-.14-14.76,1.07-14.76,7.75,0,4.05,2.74,6,6,6a8.66,8.66,0,0,0,8.42-5.76,6.46,6.46,0,0,0,.36-2Z"/><path class="cls-4" d="M554.56,859.88c0-3.55-.07-6.47-.29-9.31h5.62l.36,5.69h.14a12.84,12.84,0,0,1,11.52-6.47c4.82,0,12.31,2.84,12.31,14.64V885h-6.34V865.14c0-5.54-2.09-10.16-8.07-10.16a9,9,0,0,0-8.5,6.4,8.88,8.88,0,0,0-.43,2.91V885h-6.34Z"/><path class="cls-4" d="M619.36,883.68a23.6,23.6,0,0,1-10,2c-10.51,0-17.35-7-17.35-17.55s7.34-18.26,18.72-18.26a21.42,21.42,0,0,1,8.78,1.78l-1.44,4.83a14.86,14.86,0,0,0-7.34-1.63c-8,0-12.31,5.83-12.31,13,0,8,5.18,12.86,12.1,12.86a18.21,18.21,0,0,0,7.78-1.71Z"/><path class="cls-4" d="M629.87,868.9c.14,8.46,5.62,11.94,12,11.94a23.17,23.17,0,0,0,9.65-1.78l1.08,4.48A28.57,28.57,0,0,1,641,885.67c-10.73,0-17.14-7-17.14-17.34s6.19-18.55,16.35-18.55c11.38,0,14.4,9.88,14.4,16.2a23.25,23.25,0,0,1-.22,2.91Zm18.58-4.48c.07-4-1.66-10.16-8.79-10.16-6.41,0-9.22,5.83-9.72,10.16Z"/><path class="cls-4" d="M661.55,878.57a16.76,16.76,0,0,0,8.35,2.49c4.61,0,6.77-2.27,6.77-5.12s-1.8-4.62-6.48-6.32c-6.26-2.2-9.22-5.61-9.22-9.74,0-5.54,4.54-10.09,12-10.09a17.58,17.58,0,0,1,8.57,2.13L680,856.47a13.7,13.7,0,0,0-7.13-2c-3.74,0-5.83,2.13-5.83,4.69,0,2.84,2.09,4.12,6.62,5.83,6,2.27,9.14,5.26,9.14,10.38,0,6-4.75,10.3-13,10.3a20.08,20.08,0,0,1-9.79-2.35Z"/><path class="cls-6" d="M507.5,331.38h-76a12,12,0,0,1-12-11.84V238.61h88v92.77Z"/><path class="cls-7" d="M507.5,331.38h-76a12,12,0,0,1-12-11.84V238.61h88v92.77Z"/><path class="cls-4" d="M419.5,456.73h88v-90.8h-76a12,12,0,0,0-12,11.84v79Z"/><path class="cls-8" d="M419.5,456.73h88v-90.8h-76a12,12,0,0,0-12,11.84v79Z"/><path class="cls-5" d="M394.5,456.73h-92v-90.8h80a12,12,0,0,1,12,11.84v79Z"/><path class="cls-9" d="M394.5,456.73h-92v-90.8h80a12,12,0,0,1,12,11.84v79Z"/><path d="M382.5,328.42h-104l24-14.8h71l4-75,17-51.32V316.58A12,12,0,0,1,382.5,328.42Z"/><path class="cls-10" d="M382.5,328.42h-104l24-14.8h71l4-75,17-51.32V316.58A12,12,0,0,1,382.5,328.42Z"/><path class="cls-11" d="M409,20,20,313.12"/><path class="cls-12" d="M768.13,313.33,409,20"/><path d="M252.6,381.26c10.28,10.63,14.62,25.19,14.3,39.78-.34,15.42-6,28.7-14.65,41.19-9,12.94-18,26.36-14.76,42.84,1.72,8.89,5.78,17.12,9.23,25.42q5.61,13.49,11.5,26.86c9.46,21.41,19.33,42.65,28.09,64.37,2.07,5.12,10.48,2.89,8.38-2.31-7.7-19.1-16.21-37.84-24.6-56.64-4.33-9.7-8.64-19.42-12.75-29.22-3.66-8.73-7.92-17.44-10.46-26.58-5.09-18.29,7.4-31.61,16.68-45.94a76.93,76.93,0,0,0,12.05-41.38c0-16.41-5.35-32.62-16.86-44.53-3.9-4-10,2.12-6.15,6.15Z"/></g></g></svg>